<svg width="15" height="16" viewBox="0 0 15 16" fill="none" xmlns="http://www.w3.org/2000/svg">
<path fill-rule="evenodd" clip-rule="evenodd" d="M4.84375 6.59375H3.125C2.43437 6.59375 1.875 6.03438 1.875 5.34375V3.625C1.875 2.93437 2.43437 2.375 3.125 2.375H4.84375C5.53438 2.375 6.09375 2.93437 6.09375 3.625V5.34375C6.09375 6.03438 5.53438 6.59375 4.84375 6.59375Z" stroke="#242424" stroke-width="1.5" stroke-linecap="round" stroke-linejoin="round"/>
<path fill-rule="evenodd" clip-rule="evenodd" d="M11.875 6.59375H10.1562C9.46562 6.59375 8.90625 6.03438 8.90625 5.34375V3.625C8.90625 2.93437 9.46562 2.375 10.1562 2.375H11.875C12.5656 2.375 13.125 2.93437 13.125 3.625V5.34375C13.125 6.03438 12.5656 6.59375 11.875 6.59375Z" stroke="#242424" stroke-width="1.5" stroke-linecap="round" stroke-linejoin="round"/>
<path fill-rule="evenodd" clip-rule="evenodd" d="M4.84375 13.625H3.125C2.43437 13.625 1.875 13.0656 1.875 12.375V10.6562C1.875 9.96562 2.43437 9.40625 3.125 9.40625H4.84375C5.53438 9.40625 6.09375 9.96562 6.09375 10.6562V12.375C6.09375 13.0656 5.53438 13.625 4.84375 13.625Z" stroke="#242424" stroke-width="1.5" stroke-linecap="round" stroke-linejoin="round"/>
<path fill-rule="evenodd" clip-rule="evenodd" d="M11.875 13.625H10.1562C9.46562 13.625 8.90625 13.0656 8.90625 12.375V10.6562C8.90625 9.96562 9.46562 9.40625 10.1562 9.40625H11.875C12.5656 9.40625 13.125 9.96562 13.125 10.6562V12.375C13.125 13.0656 12.5656 13.625 11.875 13.625Z" stroke="#242424" stroke-width="1.5" stroke-linecap="round" stroke-linejoin="round"/>
</svg>
